<svg width="81" height="40" viewBox="0 0 81 40" fill="none" xmlns="http://www.w3.org/2000/svg">
<path fill-rule="evenodd" clip-rule="evenodd" d="M41.7705 18.0954H59.6285V0.206482H41.7705V18.0954Z" fill="#FF8000"/>
<path fill-rule="evenodd" clip-rule="evenodd" d="M35.9583 6.57941V3.21774H23.1259V6.57941H22.1816V18.0955H36.9024V6.57941H35.9583Z" fill="#009239"/>
<path fill-rule="evenodd" clip-rule="evenodd" d="M78.2909 6.57941V3.21774H65.4585V6.57941H64.5144V18.0955H79.235V6.57941H78.2909Z" fill="#EEDB02"/>
<path fill-rule="evenodd" clip-rule="evenodd" d="M2.15869 15.5301H14.5157V2.42172H2.15869V15.5301Z" fill="#F00000"/>
<path fill-rule="evenodd" clip-rule="evenodd" d="M41.7705 39.4213H59.6285V21.5324H41.7705V39.4213Z" fill="#FF8000"/>
<path fill-rule="evenodd" clip-rule="evenodd" d="M23.1258 24.5435V27.9052H22.1815V39.4212H36.9025V27.9052H35.9582V24.5435H23.1258Z" fill="#009239"/>
<path fill-rule="evenodd" clip-rule="evenodd" d="M65.4586 24.5435V27.9052H64.5145V39.4212H79.2351V27.9052H78.2908V24.5435H65.4586Z" fill="#EEDB02"/>
<path fill-rule="evenodd" clip-rule="evenodd" d="M2.15869 36.8558H14.5157V23.7474H2.15869V36.8558Z" fill="#F00000"/>
<path fill-rule="evenodd" clip-rule="evenodd" d="M56.2553 0.206421V7.31052H45.1439V0.206421H41.7705V18.0954H45.1439V10.6846H56.2553V18.0954H59.6285V0.206421H56.2553Z" fill="#1D1E1C"/>
<path fill-rule="evenodd" clip-rule="evenodd" d="M9.31858 14.722H3.41493V3.57972H9.31858C12.4105 3.57972 14.5572 5.85398 14.5572 9.15067C14.5572 12.4478 12.4105 14.722 9.31858 14.722ZM9.31858 0.206299H0.0415039V18.0955H9.31858C14.2505 18.0955 17.9307 14.1855 17.9307 9.15067C17.9307 4.11642 14.2505 0.206299 9.31858 0.206299Z" fill="#1D1E1C"/>
<path fill-rule="evenodd" clip-rule="evenodd" d="M77.4459 12.0635H66.3034V8.81835C66.3034 5.72627 68.5779 3.57969 71.8743 3.57969C75.1717 3.57969 77.4459 5.72627 77.4459 8.81835V12.0635ZM71.8743 0.206268C66.8401 0.206268 62.9302 3.8862 62.9302 8.81835V12.3675V15.4367V18.0822H66.3034V15.4367H77.4459V18.0822H80.8191V15.4367V12.3675V8.81835C80.8191 3.8862 76.9092 0.206268 71.8743 0.206268Z" fill="#1D1E1C"/>
<path fill-rule="evenodd" clip-rule="evenodd" d="M35.1056 12.0635H23.9631V8.81835C23.9631 5.72627 26.2375 3.57969 29.534 3.57969C32.8313 3.57969 35.1056 5.72627 35.1056 8.81835V12.0635ZM29.534 0.206268C24.4998 0.206268 20.5898 3.8862 20.5898 8.81835V12.3675V15.4367V18.0822H23.9631V15.4367H35.1056V18.0822H38.4788V15.4367V12.3675V8.81835C38.4788 3.8862 34.5689 0.206268 29.534 0.206268Z" fill="#1D1E1C"/>
<path fill-rule="evenodd" clip-rule="evenodd" d="M56.2552 28.6432H45.1438V21.5391H41.7704V39.428H45.1438V32.017H56.2552V39.428H59.6284V21.5391H56.2552V28.6432Z" fill="#1D1E1C"/>
<path fill-rule="evenodd" clip-rule="evenodd" d="M9.27683 36.0546H3.37339V24.9123H9.27683C12.3689 24.9123 14.5155 27.1866 14.5155 30.4833C14.5155 33.7804 12.3689 36.0546 9.27683 36.0546ZM9.27683 21.5389H-0.000244141V39.428H9.27683C14.2088 39.428 17.8889 35.5181 17.8889 30.4833C17.8889 25.449 14.2088 21.5389 9.27683 21.5389Z" fill="#1D1E1C"/>
<path fill-rule="evenodd" clip-rule="evenodd" d="M77.4459 33.3961H66.3034V30.1509C66.3034 27.0589 68.5779 24.9123 71.8743 24.9123C75.1717 24.9123 77.4459 27.0589 77.4459 30.1509V33.3961ZM71.8743 21.5388C66.8401 21.5388 62.9302 25.2188 62.9302 30.1509V33.7001V36.7693V39.4148H66.3034V36.7693H77.4459V39.4148H80.8191V36.7693V33.7001V30.1509C80.8191 25.2188 76.9092 21.5388 71.8743 21.5388Z" fill="#1D1E1C"/>
<path fill-rule="evenodd" clip-rule="evenodd" d="M35.1056 33.3961H23.9631V30.1509C23.9631 27.0589 26.2375 24.9123 29.534 24.9123C32.8313 24.9123 35.1056 27.0589 35.1056 30.1509V33.3961ZM29.534 21.5388C24.4998 21.5388 20.5898 25.2188 20.5898 30.1509V33.7001V36.7693V39.4148H23.9631V36.7693H35.1056V39.4148H38.4788V36.7693V33.7001V30.1509C38.4788 25.2188 34.5689 21.5388 29.534 21.5388Z" fill="#1D1E1C"/>
</svg>
