<svg width="24" height="24" viewBox="0 0 24 24" fill="none" xmlns="http://www.w3.org/2000/svg">
<rect width="24" height="24" rx="7.2" fill="#F40000"/>
<mask id="mask0_0_424" style="mask-type:luminance" maskUnits="userSpaceOnUse" x="0" y="0" width="24" height="24">
<rect width="24" height="24" rx="7.2" fill="white"/>
</mask>
<g mask="url(#mask0_0_424)">
<path fill-rule="evenodd" clip-rule="evenodd" d="M15.2597 13.9545L17.7332 16.428C17.9111 16.6059 18.0001 16.8223 18 17.077C18 17.327 17.9086 17.5433 17.726 17.726C17.5435 17.9086 17.327 18 17.077 18C16.8172 18 16.6011 17.9086 16.428 17.726L13.9545 15.2597C13.0939 15.8557 12.1348 16.1539 11.077 16.1539C10.3895 16.1539 9.73209 16.0206 9.10464 15.7537C8.47727 15.4868 7.93633 15.1263 7.482 14.6719C7.02762 14.2175 6.66703 13.6768 6.40025 13.0494C6.13342 12.4218 6 11.7645 6 11.0771C6 10.3896 6.13342 9.73214 6.40025 9.10468C6.66706 8.4773 7.02762 7.93635 7.482 7.48202C7.93633 7.02769 8.47717 6.66706 9.10464 6.40028C9.73201 6.13342 10.3895 6 11.077 6C11.7645 6 12.4219 6.13342 13.0495 6.40028C13.6768 6.66706 14.2176 7.02769 14.6719 7.48202C15.1262 7.93635 15.4868 8.4772 15.7536 9.10468C16.0205 9.73206 16.154 10.3896 16.154 11.0771C16.154 12.1347 15.8558 13.094 15.2597 13.9545ZM11.077 14.3078C11.9665 14.3078 12.7272 13.9916 13.3594 13.3593C13.9916 12.7271 14.3078 11.9664 14.3078 11.0769C14.3078 10.1876 13.9917 9.42666 13.3594 8.79452C12.7271 8.16237 11.9664 7.84615 11.077 7.84615C10.1876 7.84615 9.42671 8.16224 8.79459 8.79452C8.16242 9.42666 7.84623 10.1876 7.84623 11.0769C7.84623 11.9664 8.16234 12.7271 8.79459 13.3593C9.42684 13.9916 10.1876 14.3078 11.077 14.3078Z" fill="white"/>
</g>
</svg>
