<svg width="73" height="77" viewBox="0 0 73 77" fill="none" xmlns="http://www.w3.org/2000/svg">
<g filter="url(#filter0_d_0_308)">
<rect x="2" y="2" width="69" height="69" rx="24" fill="white"/>
</g>
<path d="M60.0658 6C61.7266 7.04141 63.2157 8.27605 64.5209 9.69167C65.7896 11.0678 66.8846 12.615 67.7945 14.322L68.0315 14.776C69.9702 18.572 71.0001 22.7418 71.0001 31.6317V41.6031L70.9951 42.6475C70.9129 51.1667 69.8057 55.1397 67.7945 58.9128C66.0557 62.1748 63.6412 64.8532 60.6292 66.8697" stroke="#F1DE02" stroke-width="2" stroke-linecap="round" stroke-linejoin="round"/>
<path d="M67 12.9175C65.962 11.2567 64.7314 9.76756 63.3205 8.46241C61.9488 7.19365 60.4067 6.09872 58.7053 5.18881L58.2528 4.95181C54.4693 3.01309 50.3132 1.98322 41.4525 1.98322H31.5139L30.4729 1.98815C21.9817 2.07035 18.0217 3.17757 14.261 5.18881C11.0098 6.9276 8.34013 9.34208 6.3303 12.354" stroke="#009639" stroke-width="2" stroke-linecap="round" stroke-linejoin="round"/>
<path d="M8.47924 9.66272C7.21048 11.0344 6.11555 12.5765 5.20564 14.2778L4.96864 14.7304C3.02992 18.5139 2.00005 22.67 2.00005 31.5307V41.4693L2.00498 42.5103C2.08718 51.0015 3.1944 54.9615 5.20564 58.7221C6.94443 61.9734 9.75891 64.643 12.7709 66.6529" stroke="#F40000" stroke-width="2" stroke-linecap="round" stroke-linejoin="round"/>
<path d="M9.99304 64.504C11.3647 65.7728 12.9068 66.8677 14.6082 67.7776L15.0607 68.0146C18.8442 69.9533 23.0003 70.9832 31.861 70.9832H41.7996L42.8406 70.9783C51.3318 70.8961 55.2918 69.7888 59.0525 67.7776C59.6314 67.468 60.1918 67.137 60.7334 66.785C63.2335 65.1601 65.1312 63.088 66.7832 60.6124" stroke="#FF8300" stroke-width="2" stroke-linecap="round" stroke-linejoin="round"/>
<path d="M67.7944 58.939C66.0556 62.1902 63.6411 64.8599 60.6292 66.8697" stroke="#FFCF08" stroke-width="2" stroke-linecap="round" stroke-linejoin="round"/>
<mask id="mask0_0_308" style="mask-type:luminance" maskUnits="userSpaceOnUse" x="29" y="40" width="15" height="16">
<path fill-rule="evenodd" clip-rule="evenodd" d="M29.0085 40.9896H43.8077V55.7887H29.0085V40.9896Z" fill="white"/>
</mask>
<g mask="url(#mask0_0_308)">
<path fill-rule="evenodd" clip-rule="evenodd" d="M36.4083 52.9981C39.1355 52.9981 41.0169 51.2221 41.0169 48.6641V43.7803H31.7992V48.6641C31.7992 51.2221 33.6807 52.9981 36.4083 52.9981ZM36.4083 55.7888C32.2431 55.7888 29.0085 52.7444 29.0085 48.6641V40.9896H43.8077V48.6641C43.8077 52.7444 40.5731 55.7888 36.4083 55.7888Z" fill="#1D1D1B"/>
</g>
<mask id="mask1_0_308" style="mask-type:luminance" maskUnits="userSpaceOnUse" x="29" y="17" width="15" height="15">
<path fill-rule="evenodd" clip-rule="evenodd" d="M29.0084 17.0997H43.8076V31.7718H29.0084V17.0997Z" fill="white"/>
</mask>
<g mask="url(#mask1_0_308)">
<path fill-rule="evenodd" clip-rule="evenodd" d="M36.4078 19.8904C33.6806 19.8904 31.7991 21.6663 31.7991 24.2243V28.9811H41.0169V24.2243C41.0169 21.6663 39.1354 19.8904 36.4078 19.8904ZM36.4078 17.0997C40.573 17.0997 43.8076 20.1441 43.8076 24.2243V31.7718H29.0084V24.2243C29.0084 20.1441 32.243 17.0997 36.4078 17.0997Z" fill="#1D1D1B"/>
</g>
<mask id="mask2_0_308" style="mask-type:luminance" maskUnits="userSpaceOnUse" x="17" y="28" width="15" height="16">
<path fill-rule="evenodd" clip-rule="evenodd" d="M17 28.9811H31.7992V43.7803H17V28.9811Z" fill="white"/>
</mask>
<g mask="url(#mask2_0_308)">
<path fill-rule="evenodd" clip-rule="evenodd" d="M19.7907 36.3809C19.7907 39.108 21.5667 40.9896 24.1246 40.9896H29.0085V31.7718H24.1246C21.5667 31.7718 19.7907 33.6533 19.7907 36.3809ZM17 36.3809C17 32.2156 20.0444 28.9811 24.1246 28.9811H31.7992V43.7803H24.1246C20.0444 43.7803 17 40.5457 17 36.3809Z" fill="#1D1D1B"/>
</g>
<mask id="mask3_0_308" style="mask-type:luminance" maskUnits="userSpaceOnUse" x="41" y="28" width="15" height="16">
<path fill-rule="evenodd" clip-rule="evenodd" d="M41.017 28.9811H55.8162V43.7802H41.017V28.9811Z" fill="white"/>
</mask>
<g mask="url(#mask3_0_308)">
<path fill-rule="evenodd" clip-rule="evenodd" d="M53.0256 36.3804C53.0256 33.6532 51.2495 31.7718 48.6915 31.7718H43.8078V40.9896H48.6915C51.2495 40.9896 53.0256 39.108 53.0256 36.3804ZM55.8162 36.3804C55.8162 40.5456 52.7718 43.7802 48.6915 43.7802H41.017V28.9811H48.6915C52.7718 28.9811 55.8162 32.2156 55.8162 36.3804Z" fill="#1D1D1B"/>
</g>
<path fill-rule="evenodd" clip-rule="evenodd" d="M53.0255 36.3805C53.0255 33.6533 51.2495 31.7719 48.6915 31.7719H43.8077V40.9896H48.6915C51.2495 40.9896 53.0255 39.1081 53.0255 36.3805Z" fill="#F1DE02"/>
<path fill-rule="evenodd" clip-rule="evenodd" d="M36.4078 19.8904C33.6806 19.8904 31.7992 21.6664 31.7992 24.2244V28.9812H41.017V24.2244C41.017 21.6664 39.1354 19.8904 36.4078 19.8904Z" fill="#009639"/>
<path fill-rule="evenodd" clip-rule="evenodd" d="M36.4083 52.9981C39.1355 52.9981 41.017 51.2222 41.017 48.6642V43.7803H31.7992V48.6642C31.7992 51.2222 33.6807 52.9981 36.4083 52.9981Z" fill="#FF8300"/>
<path fill-rule="evenodd" clip-rule="evenodd" d="M19.7906 36.381C19.7906 39.1081 21.5666 40.9896 24.1246 40.9896H29.0084V31.7719H24.1246C21.5666 31.7719 19.7906 33.6534 19.7906 36.381Z" fill="#F40000"/>
<defs>
<filter id="filter0_d_0_308" x="0" y="2" width="73" height="75" filterUnits="userSpaceOnUse" color-interpolation-filters="sRGB">
<feFlood flood-opacity="0" result="BackgroundImageFix"/>
<feColorMatrix in="SourceAlpha" type="matrix" values="0 0 0 0 0 0 0 0 0 0 0 0 0 0 0 0 0 0 127 0" result="hardAlpha"/>
<feMorphology radius="2" operator="dilate" in="SourceAlpha" result="effect1_dropShadow_0_308"/>
<feOffset dy="4"/>
<feColorMatrix type="matrix" values="0 0 0 0 0.845109 0 0 0 0 0.845109 0 0 0 0 0.845109 0 0 0 0.5 0"/>
<feBlend mode="normal" in2="BackgroundImageFix" result="effect1_dropShadow_0_308"/>
<feBlend mode="normal" in="SourceGraphic" in2="effect1_dropShadow_0_308" result="shape"/>
</filter>
</defs>
</svg>
